<svg id="Layer_1" data-name="Layer 1" xmlns="http://www.w3.org/2000/svg" viewBox="0 0 256 256"><defs><style>.cls-1{fill:none;}.cls-2{fill:#6f6aaa;}</style></defs><title>loading2</title><rect class="cls-1" width="256" height="256"/><rect class="cls-2" x="20.34" y="120.92" width="221.49" height="14.16" rx="3"/><path class="cls-2" d="M212.26,56.54,59.89,209.47a3,3,0,0,1-4.25,0l-5.73-5.75a3,3,0,0,1,0-4.26L202.29,46.53a3,3,0,0,1,4.24,0l5.73,5.75A3,3,0,0,1,212.26,56.54Z" transform="translate(0)"/><rect class="cls-2" x="19.93" y="120.95" width="222.31" height="14.1" rx="3" transform="translate(3.09 259.09) rotate(-90)"/><path class="cls-2" d="M59.89,46.53,212.26,199.46a3,3,0,0,1,0,4.26l-5.73,5.75a3,3,0,0,1-4.24,0L49.91,56.54a3,3,0,0,1,0-4.26l5.73-5.75A3,3,0,0,1,59.89,46.53Z" transform="translate(0)"/><ellipse class="cls-2" cx="20.98" cy="129.13" rx="20.98" ry="21.06"/><ellipse class="cls-2" cx="53.31" cy="206.06" rx="18.88" ry="18.95"/><ellipse class="cls-2" cx="131.09" cy="239.15" rx="16.78" ry="16.85"/><ellipse class="cls-2" cx="208.87" cy="206.06" rx="14.69" ry="14.74"/><ellipse class="cls-2" cx="243.41" cy="128.66" rx="12.59" ry="12.63"/><ellipse class="cls-2" cx="53.31" cy="49.94" rx="18.88" ry="18.95"/><ellipse class="cls-2" cx="131.09" cy="16.85" rx="16.78" ry="16.85"/><ellipse class="cls-2" cx="208.87" cy="49.94" rx="14.69" ry="14.74"/></svg>