<svg id="Layer_1" data-name="Layer 1" xmlns="http://www.w3.org/2000/svg" viewBox="0 0 252.27 250.84"><defs><style>.cls-1{fill:none;}.cls-2{fill:#9587c0;}</style></defs><title>loading</title><path class="cls-1" d="M153.68,222.61l.68-.19.37-.1.37-.11.73-.21.36-.11.37-.11.73-.22.36-.12.37-.11.72-.24.36-.12.37-.12.72-.25.37-.13.35-.12.72-.26L162,220l.37-.14.71-.27.36-.14.35-.14.71-.28.37-.14.34-.15.71-.29.35-.15.35-.15.7-.3.36-.16.34-.15.7-.32L169,217l.35-.17.69-.32.35-.17.34-.16.69-.34.34-.17.34-.17.68-.35.34-.18.34-.17.68-.36.34-.18.33-.19.67-.37.33-.18.34-.19.66-.38.33-.19.33-.19.66-.39.34-.2.32-.2.65-.4.33-.2.32-.21.65-.41.31-.2.33-.21.64-.42.32-.22.32-.21.63-.43.33-.22.3-.22.63-.44.31-.22.31-.22.62-.45.31-.23.31-.23.61-.46.31-.23.3-.23.61-.47.29-.23.31-.25.6-.48.3-.24.29-.24c.2-.16.4-.32.59-.49l.3-.24.29-.25.58-.5.29-.24.29-.26.58-.51.29-.26.28-.25.57-.51.29-.27.27-.25.56-.53.29-.27.27-.26.55-.53.28-.27.27-.27.54-.54.27-.27.27-.27.54-.55.26-.28.27-.28.52-.56.27-.28.25-.28.52-.57.26-.28.25-.29.51-.57.26-.29.25-.29.5-.58.24-.29.25-.3c.17-.19.33-.39.49-.58l.25-.31.24-.29.48-.6.24-.3.24-.3.47-.6.23-.3.23-.31.47-.61.23-.31.22-.3.46-.62.23-.32.21-.31.45-.62.22-.31.21-.32.44-.63.22-.32.21-.32.42-.64.21-.32.21-.32.41-.64.2-.32.21-.33.4-.65.2-.33.2-.33.39-.65.19-.33.2-.33.38-.67.19-.34.19-.32c.12-.23.24-.45.37-.67l.18-.34.18-.33.36-.68.18-.33.18-.35c.12-.22.23-.45.35-.68l.17-.34.17-.34c.12-.23.23-.46.34-.68l.17-.35.17-.34.33-.69.16-.35.16-.35c.1-.23.21-.46.32-.69l.16-.35.15-.35.3-.7.16-.35.14-.35.3-.71.15-.35.14-.35c.1-.24.19-.48.28-.71l.14-.35.14-.36.28-.72.13-.35.13-.36.27-.72.12-.36.13-.36c.09-.24.17-.48.25-.72l.12-.36.13-.37.24-.72.11-.35.12-.38c.08-.24.15-.48.23-.73l.11-.37.11-.36.21-.73.11-.36.1-.37.21-.74.1-.37.1-.37c.06-.24.13-.49.19-.74l.1-.37.09-.37.18-.74.09-.38.08-.36.09-.4H153.68Z" transform="translate(-1.86 -2.58)"/><path class="cls-1" d="M221.23,97.68l-.12-.36-.24-.73-.13-.37-.12-.35-.25-.72-.13-.36-.13-.36-.27-.72-.13-.35-.14-.36-.27-.71-.14-.36-.14-.35c-.1-.24-.19-.48-.29-.71l-.14-.35-.15-.36-.3-.7-.15-.35-.15-.35-.31-.7-.16-.35-.16-.35c-.1-.23-.21-.46-.32-.69l-.16-.34-.16-.35c-.11-.23-.22-.46-.34-.69l-.16-.34-.17-.35c-.12-.23-.23-.46-.34-.68l-.18-.35-.17-.34-.35-.67-.18-.34-.18-.34c-.12-.23-.24-.45-.37-.67l-.18-.35-.18-.32-.38-.67-.19-.33L213,79.2c-.12-.22-.25-.44-.38-.66l-.19-.33-.2-.33-.4-.65-.2-.34-.2-.32-.4-.65-.2-.32-.21-.32-.42-.65-.2-.31-.22-.33-.42-.63-.21-.31-.22-.33-.44-.63-.22-.32-.22-.3-.44-.63-.23-.31-.22-.31-.46-.62-.23-.31-.23-.3-.46-.61-.23-.3-.24-.31-.48-.6-.23-.3-.24-.3-.49-.59-.24-.3-.25-.29c-.16-.2-.32-.4-.49-.59l-.24-.29-.26-.29c-.16-.2-.33-.39-.5-.58l-.25-.3-.25-.28-.51-.57-.26-.29-.26-.28-.52-.57-.26-.28-.26-.28-.53-.55-.27-.28-.26-.27-.54-.55-.27-.27-.27-.28-.55-.54-.26-.26-.29-.27-.55-.53-.28-.27-.28-.26-.56-.52-.28-.26-.29-.26-.57-.51-.29-.26-.28-.25c-.19-.17-.38-.34-.58-.5l-.29-.26-.29-.24-.58-.5-.3-.25-.29-.24-.6-.49-.29-.24-.3-.24-.6-.48-.31-.23-.3-.24-.61-.46-.31-.24-.3-.23-.61-.46-.31-.22-.31-.23-.62-.45L184.6,48l-.32-.22-.63-.44-.32-.22-.31-.21-.63-.43-.32-.21-.32-.21-.64-.42-.33-.21-.32-.2-.65-.41-.31-.2-.34-.21-.65-.39-.34-.21-.32-.19-.66-.38-.33-.2-.33-.19-.67-.37-.34-.19-.33-.18-.67-.37-.32-.18-.35-.18-.68-.36-.34-.18-.34-.17-.68-.34-.34-.18-.35-.16-.68-.34-.35-.17-.34-.16-.7-.32-.35-.16-.34-.16-.7-.31-.35-.16L167,38l-.7-.3-.35-.15-.36-.15-.7-.29-.36-.14-.35-.14-.71-.28-.36-.14-.36-.13-.71-.27-.37-.14-.35-.12-.72-.26-.36-.13-.36-.12-.72-.25-.36-.12-.37-.12-.73-.23-.37-.12-.35-.11-.74-.22-.36-.11-.37-.11-.73-.21-.37-.1-.37-.1-.32-.09V98.47h67.8c0-.14-.09-.28-.13-.43Z" transform="translate(-1.86 -2.58)"/><path class="cls-1" d="M102.32,33.39l-.07,0-.74.2-.36.11-.37.1-.73.22-.37.11-.37.11-.73.22-.36.12-.36.11-.73.24-.36.12-.36.13-.73.24-.35.13L95,35.7l-.72.26-.36.13-.36.13-.71.28-.36.13-.36.14-.71.29L91,37.2l-.34.14-.71.3-.35.15-.35.15-.7.3-.35.15-.35.16-.7.32-.34.16-.35.16-.69.33-.35.16-.34.17-.69.34-.34.17-.34.17-.68.35-.34.18-.34.18-.67.35-.34.19L81,42l-.67.37-.32.18-.34.19-.67.39-.33.19-.33.19-.66.39-.32.2-.33.2c-.22.13-.44.26-.65.4l-.33.2-.32.21-.65.41-.32.21-.32.2-.64.43-.32.21-.32.21-.63.43-.31.22-.32.22-.62.44-.32.23-.31.22-.62.45-.3.22-.31.24-.62.46-.3.23-.3.23-.61.47-.31.24-.29.24-.6.48-.3.24-.29.24-.59.49-.3.25-.29.25-.58.49-.29.25-.29.26-.58.5-.29.26-.28.26-.57.51-.29.27-.27.25-.56.53-.28.26-.27.27-.55.53-.28.27-.27.27-.54.54-.27.27-.27.28-.54.55-.26.28-.27.27-.52.56-.26.28-.26.29c-.18.18-.35.37-.52.56l-.26.3-.25.27-.51.58-.26.29-.24.29c-.17.19-.34.38-.5.58l-.25.29-.25.3-.49.59-.24.3-.24.29-.48.6-.24.3-.24.3-.47.6-.23.31-.23.3-.47.61-.22.31L49,70l-.45.62-.23.31-.22.31-.44.63-.22.31-.22.32-.43.63-.21.31-.22.33-.42.64-.21.32-.21.32-.41.64-.2.32-.21.33c-.13.22-.26.44-.4.65l-.19.32-.2.34c-.14.22-.27.44-.4.66l-.19.32-.19.34c-.13.22-.26.44-.38.66l-.19.33-.19.34c-.12.22-.25.44-.37.67l-.18.33-.18.34c-.13.22-.25.45-.36.67l-.18.34-.18.34c-.12.23-.23.46-.35.68l-.17.34-.17.35c-.12.22-.23.45-.34.68l-.17.35-.16.34-.33.69-.16.35-.16.34c-.11.24-.21.47-.32.7l-.16.35-.15.35c-.1.23-.2.47-.31.7l-.15.35-.15.35c-.09.24-.19.47-.29.71l-.15.35-.14.35c-.09.24-.19.48-.28.71l-.14.36-.14.36-.27.71-.14.36-.13.36c-.09.23-.17.47-.26.71l-.13.37-.12.35c-.09.24-.17.48-.25.73l-.13.36-.12.36-.24.73-.12.37-.09.3h67.8Z" transform="translate(-1.86 -2.58)"/><path class="cls-1" d="M32.44,149.84l0,.14c.06.25.11.5.17.75l.09.37.09.37c.06.25.12.49.19.74l.09.38.1.36c.06.25.13.49.19.74l.1.37.11.36c.06.25.13.49.2.74l.11.36.11.37c.07.25.14.49.22.73l.11.38.11.35c.08.25.16.49.23.73l.12.36.12.37.24.72.12.35.13.37.26.72.13.37.13.35c.08.24.17.48.26.72l.14.36.13.35c.09.24.19.48.28.71l.14.36.14.35c.1.24.19.48.29.71l.15.36.14.35.3.7.15.34.16.36c.1.24.2.47.31.7l.15.34.16.36c.11.23.22.46.32.69l.17.36.16.33.33.69.17.34.17.35.34.68.18.34.17.34c.12.23.24.45.35.68l.19.34.17.34c.12.22.25.44.37.67l.18.34.19.33c.12.22.25.44.37.67l.19.33.19.33.39.66.19.32.2.34.39.65.2.32.2.34c.14.21.27.43.41.65l.2.31.21.33.42.65.21.32.21.32.43.63.21.32.22.31c.14.22.29.43.43.64l.22.3.22.32.45.62.22.31.23.31c.15.21.3.42.46.62l.22.3.24.31c.15.21.31.41.46.61l.24.31.23.3.48.6.23.29.25.31.48.59.24.3.25.29.49.59.25.29.25.29.5.58.26.29.25.29.51.57.26.29.26.28.52.56.27.29.25.27c.18.19.36.37.53.56l.27.28.27.27.53.55.27.26.28.28.54.54.28.26.27.27.56.53.27.26.28.27.57.52.28.26.28.26.57.51.29.25.29.26.58.5.28.25.3.25c.19.17.39.33.59.49l.29.25.3.24c.19.17.39.33.59.49l.3.24.3.24.6.48.3.23.3.24.61.46.3.23.31.24L70,207l.3.22.32.23.62.45.31.23.31.21.63.44.32.22.32.21.63.43.32.22.32.2.64.42.33.21.32.2.65.41.32.2.33.2.65.4.34.2.32.19.66.39.34.19.32.19.67.38.34.18.33.19.67.36.34.19.34.17.67.36.35.18.33.17.69.34.33.17.35.17.69.33.35.17.34.16.7.33.35.16.34.15.7.31.35.16.35.15.7.3.35.15.36.15.7.28.36.15.35.14.71.28.37.14.35.13.71.27.37.13.35.13.72.25.36.13.36.12L97,221l.36.12.36.12.73.23.37.11.36.12.73.22.37.1.36.11.74.21.38.11.35.1.2.05V149.84Z" transform="translate(-1.86 -2.58)"/><path class="cls-2" d="M154,33.48l.37.1.37.1.73.21.37.11.36.11.74.22.35.11.37.12.73.23.37.12.36.12.72.25.36.12.36.13.72.26.35.12.37.14.71.27.36.13.36.14.71.28.35.14.36.14.7.29.36.15.35.15.7.3.35.15.35.16.7.31.34.16.35.16.7.32.34.16.35.17.68.34.35.16.34.18.68.34.34.17.34.18.68.36.35.18.32.18.67.37.33.18.34.19.67.37.33.19.33.2.66.38.32.19.34.21.65.39.34.21.31.2.65.41.32.2.33.21.64.42.32.21.32.21.63.43.31.21.32.22.63.44.32.22.31.22.62.45.31.23.31.22.61.46.3.23.31.24.61.46.3.24.31.23.6.48.3.24.29.24.6.49.29.24.3.25.58.5.29.24.29.26c.2.16.39.33.58.5l.28.25.29.26.57.51.29.26.28.26.56.52.28.26.28.27.55.53.29.27.26.26.55.54.27.28.27.27.54.55.26.27.27.28.53.55.26.28.26.28.52.57.26.28.26.29.51.57.25.28.25.3c.17.19.34.38.5.58l.26.29.24.29c.17.19.33.39.49.59l.25.29.24.3.49.59.24.3.23.3.48.6.24.31.23.3.46.61.23.3.23.31.46.62.22.31.23.31.44.63.22.3.22.32.44.63.22.33.21.31.42.63.22.33.2.31.42.65.21.32.2.32.4.65.2.32.2.34.4.65.2.33.19.33c.13.22.26.44.38.66l.19.34.19.33.38.67.18.32.18.35c.13.22.25.44.37.67l.18.34.18.34.35.67.17.34.18.35c.11.22.22.45.34.68l.17.35.16.34c.12.23.23.46.34.69l.16.35.16.34c.11.23.22.46.32.69l.16.35.16.35.31.7.15.35.15.35.3.7.15.36.14.35c.1.23.19.47.29.71l.14.35.14.36.27.71.14.36.13.35.27.72.13.36.13.36.25.72.12.35.13.37.24.73.12.36.12.36c0,.15.09.29.13.43h31.09A128.16,128.16,0,0,0,153.68,2.58V33.39Z" transform="translate(-1.86 -2.58)"/><path class="cls-2" d="M34.61,98.17l.12-.37.24-.73.12-.36.13-.36c.08-.25.16-.49.25-.73l.12-.35.13-.37c.09-.24.17-.48.26-.71l.13-.36.14-.36.27-.71.14-.36L36.8,92c.09-.23.19-.47.28-.71l.14-.35.15-.35c.1-.24.2-.47.29-.71l.15-.35.15-.35c.11-.23.21-.47.31-.7l.15-.35.16-.35c.11-.23.21-.46.32-.7l.16-.34.16-.35.33-.69.16-.34.17-.35c.11-.23.22-.46.34-.68l.17-.35.17-.34c.12-.22.23-.45.35-.68l.18-.34.18-.34c.11-.22.23-.45.36-.67l.18-.34L42,81c.12-.23.25-.45.37-.67l.19-.34.19-.33c.12-.22.25-.44.38-.66l.19-.34.19-.32c.13-.22.26-.44.4-.66l.2-.34.19-.32c.14-.21.27-.43.4-.65L44.9,76l.2-.32.41-.64.21-.32.21-.32.42-.64.22-.33.21-.31.43-.63.22-.32.22-.31.44-.63.22-.31.23-.31L49,70l.23-.31.22-.31.47-.61.23-.3.23-.31.47-.6.24-.3.24-.3.48-.6.24-.29.24-.3.49-.59.25-.3.25-.29c.16-.2.33-.39.5-.58l.24-.29.26-.29.51-.58.25-.27.26-.3c.17-.19.34-.38.52-.56l.26-.29.26-.28.52-.56.27-.27.26-.28.54-.55.27-.28.27-.27.54-.54.27-.27.28-.27.55-.53.27-.27.28-.26.56-.53.27-.25.29-.27.57-.51.28-.26.29-.26.58-.5.29-.26.29-.25.58-.49.29-.25.3-.25.59-.49.29-.24.3-.24.6-.48.29-.24.31-.24.61-.47.3-.23.3-.23.62-.46.31-.24.3-.22.62-.45.31-.22.32-.23.62-.44.32-.22.31-.22.63-.43.32-.21.32-.21.64-.43.32-.2.32-.21.65-.41.32-.21.33-.2c.21-.14.43-.27.65-.4l.33-.2.32-.2.66-.39.33-.19.33-.19.67-.39.34-.19.32-.18L81,42l.34-.18.34-.19.67-.35.34-.18.34-.18.68-.35.34-.17.34-.17.69-.34.34-.17.35-.16.69-.33.35-.16.34-.16.7-.32.35-.16.35-.15.7-.3.35-.15.35-.15.71-.3L91,37.2l.36-.14.71-.29.36-.14.36-.13.71-.28.36-.13.36-.13L95,35.7l.36-.13.35-.13.73-.24.36-.13.36-.12.73-.24.36-.11.36-.12.73-.22.37-.11.37-.11.73-.22.37-.1.36-.11.74-.2.07,0V2.58A128.16,128.16,0,0,0,3.43,98.47H34.52Z" transform="translate(-1.86 -2.58)"/><path class="cls-2" d="M223.47,150.24l-.08.36-.09.38-.18.74-.09.37-.1.37c-.06.25-.13.5-.19.74l-.1.37-.1.37-.21.74-.1.37-.11.36-.21.73-.11.36-.11.37c-.08.25-.15.49-.23.73l-.12.38-.11.35-.24.72-.13.37-.12.36c-.08.24-.16.48-.25.72l-.13.36-.12.36-.27.72-.13.36-.13.35-.28.72-.14.36-.14.35c-.09.23-.18.47-.28.71l-.14.35-.15.35-.3.71-.14.35-.16.35-.3.7-.15.35-.16.35c-.11.23-.22.46-.32.69l-.16.35-.16.35-.33.69-.17.34-.17.35c-.11.22-.22.45-.34.68l-.17.34-.17.34c-.12.23-.23.46-.35.68l-.18.35-.18.33-.36.68-.18.33-.18.34c-.13.22-.25.44-.37.67l-.19.32-.19.34-.38.67-.2.33-.19.33-.39.65-.2.33-.2.33-.4.65-.21.33-.2.32-.41.64-.21.32-.21.32-.42.64-.21.32-.22.32-.44.63-.21.32-.22.31-.45.62-.21.31-.23.32-.46.62-.22.3-.23.31-.47.61-.23.31-.23.3-.47.6-.24.3-.24.3-.48.6-.24.29-.25.31c-.16.19-.32.39-.49.58l-.25.3-.24.29-.5.58-.25.29-.26.29-.51.57-.25.29-.26.28-.52.57-.25.28-.27.28-.52.56-.27.28-.26.28-.54.55-.27.27-.27.27-.54.54-.27.27-.28.27-.55.53-.27.26-.29.27-.56.53-.27.25-.29.27-.57.51-.28.25-.29.26-.58.51-.29.26-.29.24-.58.5-.29.25-.3.24c-.19.17-.39.33-.59.49l-.29.24-.3.24-.6.48-.31.25-.29.23-.61.47-.3.23-.31.23-.61.46-.31.23-.31.23-.62.45-.31.22-.31.22-.63.44-.3.22-.33.22-.63.43-.32.21-.32.22-.64.42-.33.21-.31.2-.65.41-.32.21-.33.2-.65.4-.32.2-.34.2-.66.39-.33.19-.33.19-.66.38-.34.19-.33.18-.67.37-.33.19-.34.18-.68.36-.34.17-.34.18-.68.35-.34.17-.34.17-.69.34-.34.16-.35.17-.69.32L169,217l-.34.15-.7.32-.34.15-.36.16-.7.3-.35.15-.35.15-.71.29-.34.15-.37.14-.71.28-.35.14-.36.14-.71.27L162,220l-.35.13-.72.26-.35.12-.37.13-.72.25-.37.12-.36.12-.72.24-.37.11-.36.12-.73.22-.37.11-.36.11-.73.21-.37.11-.37.1-.68.19v30.81A128.14,128.14,0,0,0,254.14,149.84H223.56Z" transform="translate(-1.86 -2.58)"/><path class="cls-2" d="M102.12,222.56l-.35-.1-.38-.11-.74-.21-.36-.11-.37-.1-.73-.22-.36-.12-.37-.11-.73-.23-.36-.12L97,221l-.73-.25-.36-.12-.36-.13-.72-.25-.35-.13-.37-.13-.71-.27-.35-.13-.37-.14-.71-.28-.35-.14-.36-.15-.7-.28-.36-.15-.35-.15-.7-.3-.35-.15-.35-.16-.7-.31-.34-.15-.35-.16-.7-.33-.34-.16-.35-.17-.69-.33-.35-.17-.33-.17-.69-.34-.33-.17-.35-.18-.67-.36-.34-.17-.34-.19-.67-.36-.33-.19-.34-.18-.67-.38-.32-.19-.34-.19-.66-.39-.32-.19-.34-.2-.65-.4-.33-.2-.32-.2-.65-.41-.32-.2-.33-.21-.64-.42-.32-.2-.32-.22-.63-.43-.32-.21-.32-.22-.63-.44-.31-.21-.31-.23-.62-.45-.32-.23L70,207l-.62-.45-.31-.24-.3-.23-.61-.46-.3-.24-.3-.23-.6-.48-.3-.24-.3-.24c-.2-.16-.4-.32-.59-.49l-.3-.24-.29-.25c-.2-.16-.4-.32-.59-.49l-.3-.25-.28-.25-.58-.5-.29-.26-.29-.25-.57-.51-.28-.26-.28-.26-.57-.52-.28-.27-.27-.26-.56-.53-.27-.27-.28-.26-.54-.54-.28-.28-.27-.26-.53-.55-.27-.27-.27-.28c-.17-.19-.35-.37-.53-.56l-.25-.27-.27-.29-.52-.56-.26-.28-.26-.29-.51-.57-.25-.29-.26-.29-.5-.58-.25-.29-.25-.29-.49-.59-.25-.29-.24-.3-.48-.59-.25-.31-.23-.29-.48-.6-.23-.3-.24-.31c-.15-.2-.31-.4-.46-.61l-.24-.31-.22-.3c-.16-.2-.31-.41-.46-.62l-.23-.31-.22-.31-.45-.62-.22-.32-.22-.3c-.14-.21-.29-.42-.43-.64l-.22-.31-.21-.32-.43-.63-.21-.32-.21-.32-.42-.65-.21-.33-.2-.31c-.14-.22-.27-.44-.41-.65l-.2-.34-.2-.32-.39-.65-.2-.34-.19-.32-.39-.66-.19-.33-.19-.33c-.12-.23-.25-.45-.37-.67l-.19-.33-.18-.34c-.12-.23-.25-.45-.37-.67l-.17-.34-.19-.34c-.11-.23-.23-.45-.35-.68l-.17-.34-.18-.34-.34-.68-.17-.35-.17-.34-.33-.69-.16-.33-.17-.36c-.1-.23-.21-.46-.32-.69l-.16-.36-.15-.34c-.11-.23-.21-.46-.31-.7l-.16-.36-.15-.34-.3-.7-.14-.35-.15-.36c-.1-.23-.19-.47-.29-.71l-.14-.35-.14-.36c-.09-.23-.19-.47-.28-.71l-.13-.35-.14-.36c-.09-.24-.18-.48-.26-.72l-.13-.35-.13-.37-.26-.72-.13-.37-.12-.35-.24-.72-.12-.37-.12-.36c-.07-.24-.15-.48-.23-.73l-.11-.35-.11-.38c-.08-.24-.15-.48-.22-.73l-.11-.37-.11-.36c-.07-.25-.14-.49-.2-.74l-.11-.36-.1-.37c-.06-.25-.13-.49-.19-.74l-.1-.36-.09-.38c-.07-.25-.13-.49-.19-.74l-.09-.37-.09-.37c-.06-.25-.11-.5-.17-.75l0-.14H1.86A128.14,128.14,0,0,0,102.32,253.42V222.61Z" transform="translate(-1.86 -2.58)"/></svg>