<svg id="Layer_1" data-name="Layer 1" xmlns="http://www.w3.org/2000/svg" viewBox="0 0 144 144"><defs><style>.cls-1{fill:#fff;}.cls-2{fill:none;}</style></defs><title>name</title><path class="cls-1" d="M72.28,95.3h4V107H44.26V95.3h7.59l-2.94-8H24.84l-2.93,8h7.58V107H.46V95.3H4.61L27.07,38.18H50Zm-28-19.38L36.88,53.24,29.49,75.92Z"/><path class="cls-1" d="M105.1,65.2c3.13-6.5,8.49-9.59,16.69-9.59,14.46,0,21.75,8.76,21.75,26,0,7.53-1.22,12.89-3.74,17.32-3.55,6.08-10.12,9.59-17.91,9.59a22.29,22.29,0,0,1-11.83-3.09c-3.14-2-4.66-4-6-8.15V107H80.31V95.51h5.57V47H80.31V35.5H105.1ZM105,81.8c0,9.38,3.55,14.43,10.12,14.43,5.87,0,8.7-4.54,8.7-14,0-9.9-2.73-14.33-8.9-14.33C108.54,67.88,105,72.93,105,81.8Z"/><rect class="cls-2" width="144" height="144"/></svg>